<mxfile host="app.diagrams.net" modified="2022-05-13T17:51:23.474Z" agent="5.0 (Macintosh)" etag="ZTKzxnAxBQqIigiqWQi9" version="18.0.2" type="github">
  <diagram id="boEZc80l3c-qthSUQF6D" name="Page-1">
    <mxGraphModel dx="803" dy="520" grid="1" gridSize="10" guides="1" tooltips="1" connect="1" arrows="1" fold="1" page="1" pageScale="1" pageWidth="827" pageHeight="1169" math="0" shadow="0">
      <root>
        <mxCell id="0" />
        <mxCell id="1" parent="0" />
        <mxCell id="6ZgY0frYhlgw2W6oDxwE-1" value="&lt;font style=&quot;font-size: 16px;&quot;&gt;Actual&lt;/font&gt;" style="rounded=0;whiteSpace=wrap;html=1;fontSize=16;fillColor=#b1ddf0;strokeColor=#10739e;" vertex="1" parent="1">
          <mxGeometry x="360" y="240" width="180" height="40" as="geometry" />
        </mxCell>
        <mxCell id="6ZgY0frYhlgw2W6oDxwE-3" value="&lt;font style=&quot;font-size: 16px;&quot;&gt;Prediction&lt;/font&gt;" style="rounded=0;whiteSpace=wrap;html=1;rotation=-90;fontSize=16;fillColor=#b0e3e6;strokeColor=#0e8088;" vertex="1" parent="1">
          <mxGeometry x="200" y="400" width="180" height="40" as="geometry" />
        </mxCell>
        <mxCell id="6ZgY0frYhlgw2W6oDxwE-4" value="&lt;font style=&quot;font-size: 16px;&quot;&gt;positive&lt;/font&gt;" style="rounded=0;whiteSpace=wrap;html=1;fontSize=16;fillColor=#d0cee2;strokeColor=#56517e;" vertex="1" parent="1">
          <mxGeometry x="360" y="290" width="80" height="30" as="geometry" />
        </mxCell>
        <mxCell id="6ZgY0frYhlgw2W6oDxwE-5" value="&lt;font style=&quot;font-size: 16px;&quot;&gt;Negative&lt;/font&gt;" style="rounded=0;whiteSpace=wrap;html=1;fontSize=16;fillColor=#fad9d5;strokeColor=#ae4132;" vertex="1" parent="1">
          <mxGeometry x="460" y="290" width="80" height="30" as="geometry" />
        </mxCell>
        <mxCell id="6ZgY0frYhlgw2W6oDxwE-6" value="&lt;font style=&quot;font-size: 16px;&quot;&gt;positive&lt;/font&gt;" style="rounded=0;whiteSpace=wrap;html=1;fontSize=16;rotation=-90;fillColor=#d0cee2;strokeColor=#56517e;" vertex="1" parent="1">
          <mxGeometry x="296" y="356" width="80" height="30" as="geometry" />
        </mxCell>
        <mxCell id="6ZgY0frYhlgw2W6oDxwE-7" value="&lt;font style=&quot;font-size: 16px;&quot;&gt;Negative&lt;/font&gt;" style="rounded=0;whiteSpace=wrap;html=1;fontSize=16;rotation=-90;fillColor=#fad9d5;strokeColor=#ae4132;" vertex="1" parent="1">
          <mxGeometry x="295" y="455" width="80" height="30" as="geometry" />
        </mxCell>
        <mxCell id="6ZgY0frYhlgw2W6oDxwE-8" value="&lt;div style=&quot;font-size: 16px;&quot;&gt;&lt;font style=&quot;font-size: 16px;&quot;&gt;True&lt;/font&gt;&lt;/div&gt;&lt;div style=&quot;font-size: 16px;&quot;&gt;&lt;font style=&quot;font-size: 16px;&quot;&gt;Positive&lt;br style=&quot;font-size: 16px;&quot;&gt;&lt;/font&gt;&lt;/div&gt;" style="rounded=0;whiteSpace=wrap;html=1;fontSize=16;fillColor=#bac8d3;strokeColor=#23445d;" vertex="1" parent="1">
          <mxGeometry x="360" y="330" width="80" height="80" as="geometry" />
        </mxCell>
        <mxCell id="6ZgY0frYhlgw2W6oDxwE-9" value="False&lt;br style=&quot;font-size: 16px;&quot;&gt;&lt;div style=&quot;font-size: 16px;&quot;&gt;&lt;font style=&quot;font-size: 16px;&quot;&gt;Positive&lt;br style=&quot;font-size: 16px;&quot;&gt;&lt;/font&gt;&lt;/div&gt;" style="rounded=0;whiteSpace=wrap;html=1;fontSize=16;fillColor=#ffe6cc;strokeColor=#d79b00;" vertex="1" parent="1">
          <mxGeometry x="460" y="330" width="80" height="80" as="geometry" />
        </mxCell>
        <mxCell id="6ZgY0frYhlgw2W6oDxwE-10" value="&lt;div style=&quot;font-size: 16px;&quot;&gt;&lt;font style=&quot;font-size: 16px;&quot;&gt;True&lt;/font&gt;&lt;/div&gt;Negative" style="rounded=0;whiteSpace=wrap;html=1;fontSize=16;fillColor=#fff2cc;strokeColor=#d6b656;" vertex="1" parent="1">
          <mxGeometry x="360" y="430" width="80" height="80" as="geometry" />
        </mxCell>
        <mxCell id="6ZgY0frYhlgw2W6oDxwE-11" value="&lt;div style=&quot;font-size: 16px;&quot;&gt;&lt;font style=&quot;font-size: 16px;&quot;&gt;False&lt;/font&gt;&lt;/div&gt;Negative" style="rounded=0;whiteSpace=wrap;html=1;fontSize=16;fillColor=#d5e8d4;strokeColor=#82b366;" vertex="1" parent="1">
          <mxGeometry x="460" y="430" width="80" height="80" as="geometry" />
        </mxCell>
      </root>
    </mxGraphModel>
  </diagram>
</mxfile>
